<svg width="85" height="75" viewBox="0 0 85 75" fill="none" xmlns="http://www.w3.org/2000/svg">
<path d="M17.9531 31.25H24.9844C32.0156 31.25 35.5312 28.125 35.5312 21.875V15.625C35.5312 9.375 32.0156 6.25 24.9844 6.25H17.9531C10.9219 6.25 7.40625 9.375 7.40625 15.625V21.875C7.40625 28.125 10.9219 31.25 17.9531 31.25Z" stroke="#000053" stroke-width="1.5" stroke-miterlimit="10" stroke-linecap="round" stroke-linejoin="round"/>
<path d="M60.1406 31.25H67.1719C74.2031 31.25 77.7188 28.125 77.7188 21.875V15.625C77.7188 9.375 74.2031 6.25 67.1719 6.25H60.1406C53.1094 6.25 49.5938 9.375 49.5938 15.625V21.875C49.5938 28.125 53.1094 31.25 60.1406 31.25Z" stroke="#000053" stroke-width="1.5" stroke-miterlimit="10" stroke-linecap="round" stroke-linejoin="round"/>
<path d="M60.1406 68.75H67.1719C74.2031 68.75 77.7188 65.625 77.7188 59.375V53.125C77.7188 46.875 74.2031 43.75 67.1719 43.75H60.1406C53.1094 43.75 49.5938 46.875 49.5938 53.125V59.375C49.5938 65.625 53.1094 68.75 60.1406 68.75Z" stroke="#000053" stroke-width="1.5" stroke-miterlimit="10" stroke-linecap="round" stroke-linejoin="round"/>
<path d="M17.9531 68.75H24.9844C32.0156 68.75 35.5312 65.625 35.5312 59.375V53.125C35.5312 46.875 32.0156 43.75 24.9844 43.75H17.9531C10.9219 43.75 7.40625 46.875 7.40625 53.125V59.375C7.40625 65.625 10.9219 68.75 17.9531 68.75Z" stroke="#000053" stroke-width="1.5" stroke-miterlimit="10" stroke-linecap="round" stroke-linejoin="round"/>
</svg>
